<?xml version="1.0" standalone="no"?>
<!DOCTYPE svg PUBLIC "-//W3C//DTD SVG 20010904//EN"
 "http://www.w3.org/TR/2001/REC-SVG-20010904/DTD/svg10.dtd">
<svg version="1.0" xmlns="http://www.w3.org/2000/svg"
 width="261.000000pt" height="261.000000pt" viewBox="0 0 261.000000 261.000000"
 preserveAspectRatio="xMidYMid meet">
<metadata>
Created by potrace 1.14, written by Peter Selinger 2001-2017
</metadata>
<g transform="translate(0.000000,261.000000) scale(0.100000,-0.100000)"
fill="#000000" stroke="none">
<path d="M1296 2504 c-50 -12 -98 -39 -129 -73 -44 -47 -55 -64 -66 -102 -7
-24 -18 -50 -23 -57 -16 -19 -13 -85 5 -113 8 -13 18 -39 22 -56 4 -18 11 -35
16 -39 5 -3 20 -22 34 -42 26 -42 54 -72 113 -122 45 -38 55 -79 28 -115 -13
-18 -15 -18 -41 13 -24 29 -30 31 -68 26 -23 -4 -51 -12 -62 -19 -35 -21 -125
-108 -125 -120 0 -6 -11 -26 -24 -44 -13 -18 -27 -48 -31 -67 -3 -20 -15 -52
-25 -72 -11 -21 -23 -73 -28 -117 -5 -45 -16 -94 -24 -110 -9 -17 -18 -51 -22
-77 -4 -26 -16 -57 -26 -71 -10 -13 -22 -35 -25 -50 -4 -14 -35 -55 -68 -90
l-62 -64 -139 10 c-76 5 -180 6 -232 2 -86 -6 -97 -10 -135 -40 -55 -43 -68
-76 -57 -139 8 -41 19 -58 71 -109 57 -58 88 -80 147 -107 14 -6 48 -22 75
-35 28 -14 66 -27 85 -31 19 -3 53 -16 75 -27 32 -16 80 -23 236 -35 169 -13
222 -14 386 -2 111 8 236 10 304 6 289 -16 380 -17 535 -3 120 11 170 20 200
35 22 11 58 24 79 28 22 3 58 17 81 30 22 13 49 24 58 24 10 0 31 11 48 25 16
14 36 25 43 25 8 0 19 9 25 20 6 11 22 23 35 26 l25 6 0 143 0 143 -32 6 c-66
13 -236 17 -353 8 l-120 -9 -62 64 c-33 35 -64 76 -68 90 -3 15 -15 37 -25 50
-10 14 -22 45 -26 71 -4 26 -13 60 -22 77 -8 16 -19 65 -24 110 -5 44 -17 96
-28 117 -10 20 -22 52 -25 72 -4 19 -18 49 -31 67 -13 18 -24 38 -24 44 0 6
-10 21 -22 33 -13 11 -27 26 -33 31 -36 37 -83 65 -123 73 -45 8 -48 8 -75
-24 -27 -32 -29 -32 -43 -14 -28 39 -18 78 34 121 27 22 61 57 78 78 16 21 39
50 51 65 12 16 25 42 29 58 4 16 14 39 22 52 17 26 20 96 4 114 -5 7 -16 33
-23 57 -7 24 -24 56 -37 70 -13 14 -27 29 -30 33 -30 33 -79 60 -133 73 -77
18 -96 18 -173 -1z m181 -130 c21 -14 50 -40 65 -57 23 -27 27 -41 28 -95 0
-72 -5 -80 -106 -188 -33 -35 -69 -64 -79 -64 -10 0 -46 29 -79 64 -101 107
-106 116 -106 186 0 69 18 101 88 152 52 37 135 39 189 2z m-228 -667 c8 -11
5 -19 -14 -37 -14 -13 -25 -33 -25 -45 0 -12 -11 -38 -24 -58 -14 -20 -28 -53
-32 -74 -4 -20 -15 -51 -24 -67 -10 -17 -21 -53 -25 -81 -3 -27 -16 -85 -27
-128 -17 -68 -18 -87 -8 -149 6 -39 13 -74 15 -79 3 -4 10 -42 15 -84 6 -45
18 -91 30 -110 46 -74 16 -87 -82 -35 -91 49 -124 65 -165 80 -42 16 -62 61
-40 92 9 13 31 43 48 68 18 25 38 67 45 94 7 26 20 56 28 65 10 11 20 52 27
101 5 46 16 95 24 110 8 15 19 55 24 89 6 34 19 73 30 88 12 14 21 30 21 36 0
21 54 89 89 113 41 27 54 29 70 11z m337 -8 c34 -21 94 -94 94 -115 0 -6 9
-23 21 -37 11 -15 24 -54 30 -88 5 -34 16 -74 24 -89 8 -15 19 -64 24 -110 7
-49 17 -90 27 -101 8 -9 21 -39 28 -65 7 -27 27 -69 45 -94 17 -25 39 -55 48
-68 22 -31 2 -76 -40 -92 -40 -15 -87 -37 -107 -50 -8 -5 -26 -15 -40 -21 -14
-6 -40 -19 -59 -29 -58 -32 -78 -6 -41 55 11 19 24 65 30 107 5 41 13 85 18
99 23 59 24 145 4 220 -11 41 -23 97 -27 124 -4 28 -15 64 -25 81 -10 17 -21
50 -25 73 -4 23 -12 47 -19 54 -20 19 -36 54 -36 75 0 10 -11 29 -25 42 -19
18 -22 26 -14 37 15 18 26 17 65 -8z m-166 -74 c10 -24 23 -46 28 -49 6 -3 15
-28 22 -55 6 -27 20 -57 31 -67 11 -10 19 -30 19 -48 0 -17 11 -55 25 -84 23
-50 25 -65 25 -208 0 -120 -4 -163 -16 -192 -9 -20 -22 -58 -29 -84 -15 -55
-74 -131 -114 -148 -36 -14 -82 6 -108 48 -10 15 -23 31 -30 35 -7 4 -17 27
-23 50 -6 23 -20 63 -30 89 -17 39 -20 71 -20 198 0 138 2 155 25 210 14 33
25 72 25 88 0 16 9 39 20 52 11 13 25 41 31 64 6 22 19 51 30 64 10 14 19 30
19 36 0 20 31 57 42 50 5 -3 18 -25 28 -49z m-920 -805 c10 -5 23 -25 30 -44
9 -27 18 -35 43 -40 37 -7 92 7 116 28 15 13 20 14 45 1 15 -8 46 -20 69 -27
23 -6 49 -17 57 -24 9 -8 35 -20 59 -29 23 -8 54 -24 68 -35 14 -11 32 -20 39
-20 8 0 23 -9 34 -20 11 -11 36 -26 56 -35 25 -10 35 -20 32 -32 -3 -17 -20
-18 -213 -18 -171 0 -217 3 -250 16 -22 9 -65 20 -95 24 -30 4 -66 15 -80 25
-14 10 -42 22 -62 28 -21 6 -50 20 -64 31 -15 12 -32 21 -39 21 -7 0 -36 18
-64 40 -48 38 -50 41 -39 66 7 15 26 33 43 40 35 16 188 18 215 4z m1979 -1
c18 -6 38 -24 46 -40 15 -28 15 -29 -36 -69 -28 -22 -57 -40 -64 -40 -7 0 -24
-9 -39 -21 -14 -11 -43 -25 -63 -31 -21 -6 -48 -18 -60 -28 -13 -10 -49 -21
-80 -25 -32 -4 -76 -14 -98 -24 -33 -13 -78 -16 -250 -16 -194 0 -210 1 -213
18 -3 13 7 22 37 34 23 9 41 20 41 25 0 5 19 18 43 29 23 11 53 26 67 34 14 8
41 22 60 30 19 8 42 19 50 24 8 5 44 20 80 34 57 22 67 23 81 11 24 -22 80
-35 116 -28 26 5 34 13 44 41 6 19 21 38 33 43 31 13 168 12 205 -1z"/>
</g>
</svg>
